<?xml version="1.0" standalone="no"?>
<!DOCTYPE svg PUBLIC "-//W3C//DTD SVG 20010904//EN"
 "http://www.w3.org/TR/2001/REC-SVG-20010904/DTD/svg10.dtd">
<svg version="1.0" xmlns="http://www.w3.org/2000/svg"
 width="576.000000pt" height="576.000000pt" viewBox="0 0 576.000000 576.000000"
 preserveAspectRatio="xMidYMid meet">
<metadata>
Created by potrace 1.11, written by Peter Selinger 2001-2013
</metadata>
<g transform="translate(0.000000,576.000000) scale(0.100000,-0.100000)"
fill="#000000" stroke="none">
<path d="M1911 5719 c-18 -22 -31 -43 -28 -45 3 -3 13 6 23 19 11 12 27 26 37
30 17 6 24 37 9 37 -5 0 -23 -18 -41 -41z"/>
<path d="M4900 5736 c0 -13 6 -28 13 -33 19 -14 150 -10 154 5 3 6 -2 12 -11
12 -9 0 -16 5 -16 12 0 8 33 9 123 4 121 -7 191 -20 234 -44 27 -15 70 -16 78
-2 5 7 11 8 19 1 7 -6 60 -8 139 -4 115 5 127 8 127 25 0 15 -8 18 -50 18 -36
0 -52 4 -56 15 -5 12 -24 15 -88 15 -46 0 -87 -5 -93 -11 -8 -8 -13 -8 -17 0
-5 8 -95 11 -282 11 l-274 0 0 -24z"/>
<path d="M3155 5659 c-4 -6 -5 -12 -2 -15 7 -7 37 7 37 17 0 13 -27 11 -35 -2z"/>
<path d="M1432 5630 c0 -35 13 -77 20 -65 3 6 0 28 -7 50 -10 30 -13 34 -13
15z"/>
<path d="M3000 5609 c-52 -16 -122 -39 -155 -50 -33 -11 -70 -22 -82 -24 -41
-6 -356 -110 -404 -134 -20 -9 -90 -35 -157 -56 -67 -22 -124 -46 -127 -54 -4
-10 1 -12 22 -7 16 4 44 10 63 15 30 7 121 44 170 70 9 5 30 12 47 15 18 4 50
16 72 27 22 10 44 19 49 19 6 0 84 24 175 54 91 30 193 62 228 71 86 22 210
63 229 75 29 19 -32 9 -130 -21z"/>
<path d="M1335 5614 c-19 -16 -19 -16 5 -9 31 9 50 25 30 25 -8 0 -24 -8 -35
-16z"/>
<path d="M4 5488 c1 -51 13 -97 32 -126 1 -2 12 -1 23 3 15 4 21 15 21 35 0
16 -4 31 -9 35 -6 3 -22 30 -37 60 -14 30 -28 55 -29 55 -2 0 -2 -28 -1 -62z"/>
<path d="M71 5338 c-7 -13 -10 -20 -6 -16 4 4 18 -5 31 -20 22 -25 23 -26 19
-5 -3 20 -23 63 -28 63 -1 0 -8 -10 -16 -22z"/>
<path d="M2010 5345 c0 -8 5 -15 10 -15 6 0 10 7 10 15 0 8 -4 15 -10 15 -5 0
-10 -7 -10 -15z"/>
<path d="M2022 5291 c4 -13 18 -16 19 -4 0 4 -5 9 -11 12 -7 2 -11 -2 -8 -8z"/>
<path d="M5600 5251 c0 -10 105 -22 126 -14 8 3 11 9 8 14 -7 12 -134 12 -134
0z"/>
<path d="M129 5146 c6 -7 9 -21 5 -30 -6 -17 4 -20 30 -10 24 9 19 29 -9 42
-34 16 -40 15 -26 -2z"/>
<path d="M445 5079 c50 -11 98 -25 107 -30 10 -5 24 -9 32 -9 29 0 197 -59
225 -79 51 -37 71 -22 25 18 -16 14 -74 37 -148 57 -67 19 -134 39 -151 44
-16 5 -64 12 -105 15 l-75 5 90 -21z"/>
<path d="M1030 5075 c0 -31 23 -88 49 -121 18 -22 18 -28 5 -71 -15 -50 -19
-113 -6 -113 11 0 34 39 28 49 -3 4 -1 24 5 44 12 43 33 48 72 17 35 -28 83
-46 137 -54 42 -6 39 -3 -48 39 -106 52 -205 141 -217 194 -8 39 -25 50 -25
16z"/>
<path d="M1845 4950 c-49 -26 -110 -57 -133 -69 -24 -12 -42 -25 -39 -28 8 -7
277 126 277 137 0 14 -5 12 -105 -40z"/>
<path d="M4005 4920 c3 -5 8 -10 11 -10 2 0 4 5 4 10 0 6 -5 10 -11 10 -5 0
-7 -4 -4 -10z"/>
<path d="M3875 4870 c-4 -6 -1 -17 5 -25 10 -12 9 -15 -4 -15 -11 0 -16 -9
-16 -30 0 -23 5 -30 19 -30 11 0 23 -5 27 -11 4 -8 9 -7 15 2 6 10 13 10 32 2
28 -13 78 -4 84 14 3 7 -6 17 -18 23 -14 8 -19 8 -15 1 4 -6 2 -11 -3 -11 -6
0 -11 6 -11 13 -1 7 -7 4 -15 -7 -16 -21 -45 -15 -45 9 0 8 -7 15 -16 15 -10
0 -14 6 -10 15 11 30 -14 60 -29 35z"/>
<path d="M1750 4855 c0 -13 63 -105 72 -105 25 0 -27 103 -55 108 -9 2 -17 0
-17 -3z"/>
<path d="M1575 4834 c-33 -9 -77 -14 -97 -12 -46 4 -50 -7 -7 -16 52 -10 73
-7 135 19 67 27 57 30 -31 9z"/>
<path d="M1375 4820 c3 -5 15 -10 26 -10 10 0 19 5 19 10 0 6 -12 10 -26 10
-14 0 -23 -4 -19 -10z"/>
<path d="M4060 4760 c6 -11 13 -20 15 -20 3 0 5 9 5 20 0 11 -7 20 -15 20 -13
0 -14 -4 -5 -20z"/>
<path d="M3986 4705 c-9 -19 -23 -35 -31 -35 -8 0 -15 -6 -15 -14 0 -7 -14
-19 -31 -26 -21 -9 -26 -15 -18 -21 7 -4 17 -5 21 -3 4 3 8 0 8 -5 0 -6 -7
-11 -16 -11 -8 0 -12 -4 -9 -10 9 -14 41 -7 63 14 13 11 28 15 45 11 20 -5 29
0 50 27 16 20 22 35 15 37 -6 2 -15 -4 -20 -13 -12 -22 -25 -20 -31 4 -3 13 0
20 9 20 18 0 18 19 0 26 -8 3 -12 12 -9 20 11 30 -16 12 -31 -21z"/>
<path d="M4071 4704 c0 -11 3 -14 6 -6 3 7 2 16 -1 19 -3 4 -6 -2 -5 -13z"/>
<path d="M3470 4674 c0 -9 5 -14 12 -12 18 6 21 28 4 28 -9 0 -16 -7 -16 -16z"/>
<path d="M1009 4578 c-18 -57 -38 -116 -45 -133 -32 -73 -64 -165 -78 -225
-18 -74 -27 -107 -55 -205 -29 -102 -45 -225 -32 -238 13 -13 31 4 49 45 10
23 9 26 -5 21 -18 -7 -17 6 11 127 46 199 88 338 131 435 43 96 55 136 61 205
4 39 4 70 1 70 -4 0 -21 -46 -38 -102z"/>
<path d="M3518 4636 c-3 -31 -2 -34 12 -22 8 7 21 11 29 8 20 -7 8 19 -16 35
-20 13 -21 12 -25 -21z"/>
<path d="M3465 4613 c0 -16 5 -34 12 -41 7 -7 13 -20 13 -28 0 -8 7 -14 16
-14 13 0 12 5 -6 30 -12 16 -19 34 -16 39 7 10 -3 41 -13 41 -3 0 -6 -12 -6
-27z"/>
<path d="M3640 4595 c0 -17 16 -20 25 -5 4 6 11 7 17 4 7 -4 8 -2 4 4 -10 17
-46 15 -46 -3z"/>
<path d="M3805 4603 c-38 -9 -42 -25 -6 -21 19 2 36 9 39 16 4 12 1 13 -33 5z"/>
<path d="M3620 4559 c0 -5 5 -7 10 -4 6 3 10 8 10 11 0 2 -4 4 -10 4 -5 0 -10
-5 -10 -11z"/>
<path d="M3910 4540 c0 -11 5 -20 11 -20 5 0 7 5 3 11 -3 6 0 15 7 20 11 7 10
9 -3 9 -11 0 -18 -8 -18 -20z"/>
<path d="M3650 4521 c0 -5 5 -13 10 -16 6 -3 10 -2 10 4 0 5 -4 13 -10 16 -5
3 -10 2 -10 -4z"/>
<path d="M3251 4448 c-7 -35 -19 -77 -26 -95 -11 -27 -11 -34 1 -44 9 -8 13
-28 11 -63 -1 -29 2 -51 8 -51 6 0 9 18 7 40 -2 24 3 48 11 60 14 18 26 19
162 17 81 -1 155 -7 165 -12 17 -9 17 -13 4 -62 -18 -68 -18 -84 -1 -70 7 6
19 35 26 64 17 67 25 77 71 84 25 4 40 13 43 24 3 11 17 20 33 23 l29 4 -29 2
c-26 1 -28 4 -24 31 3 17 2 30 -1 31 -51 7 -82 -2 -48 -14 8 -3 5 -11 -10 -26
-29 -27 -34 -27 -74 9 -42 36 -54 15 -15 -27 18 -19 22 -31 15 -38 -12 -12
-318 -10 -330 2 -8 8 4 111 17 156 4 12 0 17 -13 17 -15 0 -22 -13 -32 -62z"/>
<path d="M1940 4485 c0 -14 25 -55 34 -55 6 0 5 5 -2 12 -7 7 -12 20 -12 30 0
10 -4 18 -10 18 -5 0 -10 -2 -10 -5z"/>
<path d="M3700 4485 c0 -1 6 -8 14 -14 10 -8 16 -8 25 3 9 11 7 14 -14 14 -14
0 -25 -2 -25 -3z"/>
<path d="M3660 4470 c0 -5 5 -10 10 -10 6 0 10 5 10 10 0 6 -4 10 -10 10 -5 0
-10 -4 -10 -10z"/>
<path d="M2899 4435 c-13 -13 -24 -14 -60 -6 -76 18 -99 15 -99 -14 0 -17 4
-23 15 -19 18 7 61 -21 46 -31 -6 -3 -9 -10 -6 -15 3 -5 1 -11 -5 -15 -5 -3
-10 -21 -10 -38 0 -18 -7 -43 -16 -55 -9 -13 -20 -35 -24 -50 -6 -21 -8 -12
-9 36 -1 40 -5 61 -11 57 -6 -4 -8 -11 -4 -16 3 -6 -2 -16 -12 -23 -13 -10
-18 -31 -21 -82 -3 -46 -11 -80 -25 -102 -15 -25 -18 -36 -9 -45 16 -16 14
-42 -4 -57 -11 -9 -15 -32 -14 -89 1 -42 -1 -83 -4 -91 -8 -19 -3 -107 6 -117
4 -4 10 2 13 12 6 24 47 45 65 34 10 -6 10 -13 1 -33 l-12 -26 -132 4 c-73 3
-239 8 -368 11 -129 3 -290 10 -358 15 -68 5 -129 7 -137 4 -7 -3 -18 -35 -25
-72 -13 -69 -44 -155 -66 -182 -6 -8 -37 -64 -67 -125 -31 -60 -67 -125 -81
-144 -15 -19 -26 -39 -26 -43 0 -19 -113 -235 -141 -270 -16 -20 -26 -39 -21
-41 8 -6 62 -2 137 9 103 14 97 18 100 -59 2 -63 8 -87 20 -75 3 2 8 32 11 66
l7 61 51 6 c28 3 107 7 176 8 96 1 124 -1 122 -10 -3 -17 15 -17 20 -1 4 10
93 12 390 11 377 -2 387 -2 489 -27 57 -14 112 -26 122 -26 26 0 21 -25 -14
-65 -20 -22 -26 -35 -17 -35 8 0 19 5 26 12 9 9 12 8 12 -5 0 -25 -53 -117
-68 -117 -27 0 -36 -47 -23 -117 19 -110 7 -920 -16 -1013 -14 -57 -20 46 -19
295 1 141 1 257 -1 259 -2 1 -5 96 -8 211 -2 114 -5 209 -7 210 -6 6 -407 10
-413 4 -3 -4 4 -51 16 -105 23 -108 28 -275 15 -519 -9 -158 -53 -457 -69
-467 -7 -4 -24 -8 -39 -8 -20 0 -26 4 -22 15 4 8 2 15 -4 15 -5 0 -7 12 -5 28
6 44 22 224 37 410 10 133 17 177 30 191 20 22 20 32 13 406 -4 194 -9 288
-20 334 -18 71 -20 76 -41 68 -10 -4 -13 -19 -10 -62 2 -31 8 -64 13 -73 5 -9
8 -144 7 -300 -2 -264 -4 -284 -22 -309 -17 -22 -30 -27 -75 -31 -30 -2 -72
-7 -94 -12 -31 -7 -42 -6 -51 5 -16 22 -44 19 -44 -4 0 -16 -11 -22 -57 -31
-88 -18 -153 -40 -153 -52 0 -13 59 -2 97 17 15 8 53 15 85 15 l56 0 -4 -132
c-9 -322 -14 -405 -23 -441 -11 -45 -26 -64 -19 -24 5 26 4 27 -43 27 -44 0
-70 -13 -55 -28 4 -3 22 -5 41 -4 19 2 35 -2 35 -7 0 -10 -103 -19 -127 -10
-29 10 -42 115 -44 351 -1 123 -4 229 -6 236 -7 18 -73 16 -73 -3 0 -8 8 -15
19 -15 14 0 19 -10 24 -45 2 -26 1 -64 -4 -86 -6 -25 -6 -47 1 -59 7 -13 7
-21 -1 -26 -12 -7 -8 -62 7 -98 5 -14 4 -17 -4 -12 -7 4 -12 1 -12 -8 0 -8 5
-18 10 -21 6 -4 8 -10 5 -16 -3 -5 -6 -41 -6 -81 0 -114 3 -111 -97 -107 -72
3 -87 1 -88 -11 -1 -8 -2 -19 -3 -24 0 -5 -11 -1 -22 10 -21 18 -21 24 -14
134 7 97 13 285 15 408 0 31 2 32 39 32 22 0 43 5 46 10 4 6 -9 10 -33 10 -22
0 -44 6 -50 13 -5 6 -12 58 -14 115 -3 61 -10 108 -17 115 -9 9 -12 -14 -10
-107 1 -102 -1 -121 -15 -132 -16 -11 -16 -13 1 -22 16 -9 18 -28 21 -164 2
-84 -1 -184 -7 -223 -7 -38 -11 -79 -10 -90 2 -39 1 -51 -4 -132 -6 -93 -10
-103 -37 -103 -27 0 -33 -16 -20 -54 9 -28 15 -33 37 -30 27 3 56 -23 46 -40
-4 -5 -1 -6 4 -3 19 12 36 -19 24 -42 -14 -26 -14 -31 4 -31 11 0 15 12 15 49
0 34 4 51 15 55 11 4 15 -1 15 -18 0 -18 7 -25 27 -29 16 -3 31 0 35 6 10 16
41 15 53 -1 11 -14 48 -6 39 9 -3 5 0 9 5 9 6 0 11 8 12 18 0 13 3 12 11 -6
11 -23 18 -25 56 -22 12 1 22 -3 22 -9 0 -6 15 -3 37 7 24 11 37 13 40 6 3 -8
18 -9 50 -3 38 8 48 6 59 -9 10 -13 15 -14 25 -5 6 6 17 9 23 7 15 -6 61 42
48 50 -5 3 -26 8 -46 10 -41 5 -96 27 -96 38 0 4 17 10 38 13 51 8 67 19 64
43 -2 14 6 24 26 33 22 9 28 18 24 32 -3 14 -1 18 6 13 7 -4 15 0 18 8 4 9 18
16 34 16 27 0 28 -3 25 -32 -3 -18 -7 -68 -11 -112 -5 -65 -9 -79 -25 -83 -10
-3 -17 -9 -14 -13 7 -11 -46 -28 -110 -36 -27 -3 -55 -11 -62 -16 -7 -5 -26
-7 -42 -3 -16 3 -39 2 -50 -4 -11 -6 -52 -12 -91 -13 -39 -1 -74 -6 -76 -10
-3 -4 -14 -8 -26 -8 -11 0 -45 -8 -76 -17 -50 -14 -54 -17 -32 -23 14 -4 39
-5 55 -3 17 3 46 0 65 -5 32 -9 33 -10 13 -18 -12 -5 -22 -13 -22 -19 1 -21
-21 -15 -32 8 -12 26 -39 27 -39 1 0 -8 -9 -14 -19 -14 -11 0 -26 -3 -34 -6
-11 -4 -20 8 -32 45 -9 28 -20 51 -25 51 -9 0 -4 -206 6 -221 10 -17 33 -9 36
14 2 18 9 22 38 22 19 1 38 -4 42 -9 9 -13 76 -17 83 -6 4 6 17 10 31 10 13 0
33 5 44 12 15 9 24 9 42 -1 17 -9 31 -9 50 -2 15 6 90 10 166 9 77 0 143 2
148 5 5 3 63 13 129 22 91 14 157 16 273 12 137 -5 180 0 137 17 -9 3 -73 6
-143 6 -120 1 -216 -8 -326 -29 -78 -15 -81 -12 -78 55 1 34 9 65 18 75 9 10
44 21 87 27 79 12 309 32 372 32 38 0 75 14 65 23 -3 3 -52 1 -110 -4 -58 -4
-134 -9 -170 -10 -36 -1 -99 -7 -140 -15 -76 -14 -104 -8 -83 18 6 7 9 42 7
78 -4 75 2 100 22 100 8 0 14 4 14 8 0 5 -10 8 -22 8 -21 -1 -25 11 -19 63 1
5 16 12 34 16 63 12 83 24 85 52 7 82 34 227 47 252 9 18 15 56 15 93 0 73 10
95 36 83 17 -8 17 -9 -3 -12 -24 -5 -30 -18 -13 -28 6 -3 10 -1 10 5 0 6 5 8
10 5 6 -4 2 -14 -11 -24 -17 -13 -20 -23 -13 -42 4 -13 7 -30 5 -37 -1 -8 2
-19 7 -25 14 -19 21 -56 11 -63 -5 -3 -2 -21 6 -41 10 -24 12 -40 5 -52 -8
-13 -10 -12 -10 9 l-1 25 -10 -25 c-8 -20 -6 -27 8 -38 17 -13 17 -13 -1 -10
-23 4 -43 -51 -23 -64 8 -5 7 -8 -5 -8 -10 0 -18 -5 -18 -11 0 -5 -4 -8 -9 -4
-5 3 -13 0 -17 -6 -5 -9 8 -10 51 -5 57 6 57 6 51 -18 -5 -20 -2 -25 16 -28
30 -4 34 -24 6 -31 -13 -4 -68 -9 -121 -13 -63 -5 -96 -11 -94 -18 2 -6 19
-10 38 -9 154 11 200 15 244 23 185 34 205 34 205 -1 0 -10 -5 -19 -11 -19 -8
0 -8 -4 0 -14 16 -19 7 -22 -74 -24 -91 -3 -363 -32 -392 -43 -13 -5 -23 -13
-23 -18 0 -16 22 -25 29 -12 12 19 396 60 439 46 22 -6 32 -45 12 -45 -6 0 -6
-9 0 -25 5 -14 8 -54 6 -90 -2 -44 0 -65 8 -65 11 0 56 123 56 154 0 18 8 20
29 7 11 -7 10 -10 -4 -18 -12 -7 -14 -12 -6 -17 14 -9 51 2 51 15 0 5 14 9 30
9 27 0 30 -3 30 -29 0 -33 -15 -47 -46 -43 -25 4 -49 -39 -31 -57 6 -6 19 -11
28 -11 9 0 31 -6 49 -14 25 -10 29 -14 15 -20 -9 -3 -30 -6 -46 -6 -50 0 -23
-18 39 -26 l57 -8 -50 -8 c-27 -5 -83 -9 -122 -10 -40 0 -73 -5 -73 -9 0 -12
-8 -11 195 -13 l180 -2 -4 -43 c-3 -43 -2 -43 19 -28 13 9 28 26 34 39 11 22
16 23 114 21 96 -1 125 6 85 22 -17 6 -17 7 0 16 23 13 39 2 32 -21 -5 -15 0
-20 27 -24 76 -11 214 -22 239 -18 25 4 27 7 22 37 -7 46 15 135 34 135 10 0
12 -6 8 -20 -5 -15 -3 -18 9 -14 8 3 13 11 10 19 -3 7 2 15 10 18 10 4 13 1
10 -7 -3 -7 2 -16 11 -20 11 -4 15 -1 13 11 -2 10 8 22 22 30 15 7 24 19 22
29 -2 9 1 20 6 23 5 3 13 17 17 31 4 14 4 22 1 19 -4 -4 -18 4 -31 17 -26 26
-100 34 -107 12 -3 -7 -7 -3 -10 9 -5 20 -3 22 30 20 21 -1 37 3 39 11 3 8 -6
12 -29 12 -93 1 -264 13 -273 20 -6 5 -37 7 -70 4 -81 -5 -145 5 -145 22 0 13
-46 20 -122 17 -16 -1 -28 3 -28 8 0 4 -7 5 -17 2 -11 -4 -14 -3 -9 5 4 7 4
12 -1 13 -4 0 -31 2 -60 3 -29 2 -58 8 -65 13 -7 6 -34 14 -60 17 -37 6 -47 4
-44 -6 2 -7 7 -28 10 -45 5 -28 2 -33 -14 -33 -10 0 -22 -5 -25 -10 -4 -6 -11
-8 -16 -5 -5 4 -6 -7 -3 -25 4 -19 2 -30 -5 -30 -6 0 -11 15 -12 33 0 17 -2
71 -5 118 -4 71 -2 89 11 103 9 9 12 16 6 16 -15 0 -14 67 4 245 12 120 19
461 13 630 0 11 0 45 0 75 1 30 -1 79 -4 108 -6 51 -5 52 19 52 30 0 44 15 22
24 -19 7 -19 30 0 46 8 7 12 16 9 22 -3 5 0 15 6 23 7 8 9 15 5 15 -5 0 -2 8
6 18 8 9 25 38 38 65 20 40 28 47 53 47 22 0 29 4 26 17 -2 9 -14 20 -26 23
l-23 5 41 80 c23 44 53 103 66 130 14 28 38 75 55 105 58 109 209 426 209 441
0 4 8 23 18 41 10 18 24 49 32 68 7 19 36 82 65 140 63 128 90 202 82 225 -12
31 -32 9 -58 -66 -15 -41 -51 -126 -82 -190 l-55 -116 -49 -2 c-209 -8 -279
-19 -142 -23 121 -4 143 -3 168 6 l23 8 -25 -44 c-13 -23 -39 -79 -58 -123
-18 -44 -41 -92 -51 -107 -10 -14 -18 -33 -18 -42 0 -15 -13 -41 -105 -211
-18 -33 -36 -71 -40 -85 -4 -14 -25 -52 -46 -86 -22 -34 -39 -67 -39 -74 0
-20 -41 -71 -64 -80 -11 -4 -26 -4 -32 1 -6 5 -54 19 -105 30 -88 19 -124 21
-554 20 -925 -2 -846 -3 -852 15 -2 7 3 19 12 27 21 21 19 37 -5 37 -15 0 -20
-7 -20 -25 0 -14 -4 -25 -10 -25 -5 0 -10 4 -10 9 0 18 29 78 44 91 9 7 16 19
16 27 0 8 11 31 25 51 14 20 25 49 25 64 0 19 5 28 16 28 8 0 13 4 10 9 -3 5
1 14 9 21 8 6 19 28 26 48 7 20 28 64 48 97 20 33 43 74 51 90 8 17 19 37 26
45 14 18 28 64 44 148 13 63 30 78 58 50 7 -7 15 -8 24 -1 8 6 46 7 103 2 50
-4 145 -8 213 -8 68 0 128 -4 134 -7 8 -5 275 -13 440 -14 15 0 31 -7 36 -16
12 -22 53 -23 74 -2 13 13 28 16 70 11 29 -3 64 -5 77 -4 19 1 22 -3 18 -22
-3 -12 -2 -40 3 -62 4 -22 8 -30 9 -18 1 27 44 57 70 50 14 -3 23 3 32 25 6
16 21 35 33 43 19 14 19 15 -17 15 -35 0 -37 2 -37 33 -1 29 -2 30 -14 15 -20
-27 -29 -22 -11 6 8 13 13 32 9 42 -4 14 -3 15 4 5 7 -9 12 -10 16 -2 4 6 4
11 -1 11 -4 0 3 7 15 16 12 8 22 21 22 27 0 8 -3 9 -8 1 -11 -16 -42 -25 -42
-12 0 6 12 22 26 35 20 19 23 27 14 38 -9 10 -7 16 7 24 17 9 17 10 1 16 -10
4 -18 14 -18 22 0 9 6 13 15 9 9 -3 15 0 15 8 0 8 6 16 13 19 10 4 10 7 0 18
-11 11 -13 10 -13 -4 0 -9 -5 -17 -11 -17 -8 0 -10 12 -6 36 7 43 15 53 26 35
6 -9 11 -10 15 -2 4 6 5 15 2 20 -3 5 -2 30 3 55 8 44 3 86 -14 129 -5 12 -2
17 10 17 13 0 16 6 11 26 -4 14 -3 31 2 37 5 7 7 29 5 49 l-5 37 -75 -1 c-67
0 -77 2 -102 26 -31 30 -41 32 -62 11z m221 -80 c0 -8 -4 -15 -9 -15 -13 0
-22 16 -14 24 11 11 23 6 23 -9z m-100 -5 c0 -5 -9 -10 -19 -10 -11 0 -22 -4
-26 -10 -3 -5 -12 -7 -21 -3 -11 4 -12 9 -3 19 13 16 69 19 69 4z m-110 -20
c0 -18 -3 -19 -21 -9 -17 9 -19 13 -8 20 22 14 29 11 29 -11z m-88 -62 c-9 -9
-12 -7 -12 12 0 19 3 21 12 12 9 -9 9 -15 0 -24z m53 -20 c5 4 5 1 1 -5 -4 -7
-2 -22 4 -33 17 -31 -4 -23 -23 9 -20 35 -22 48 -4 32 8 -6 18 -7 22 -3z m-45
-77 c0 -26 -16 -35 -24 -15 -10 25 -7 34 9 34 8 0 15 -9 15 -19z m21 -14 c-10
-9 -11 -8 -5 6 3 10 9 15 12 12 3 -3 0 -11 -7 -18z m249 9 c0 -2 -7 -6 -15
-10 -8 -3 -15 -1 -15 4 0 6 7 10 15 10 8 0 15 -2 15 -4z m-148 -167 c-13 -12
-62 -19 -62 -10 0 16 54 39 62 27 4 -6 4 -14 0 -17z m-238 -75 c4 -9 4 -19 2
-21 -8 -8 -26 8 -26 23 0 19 16 18 24 -2z m173 -26 c-3 -8 -6 -5 -6 6 -1 11 2
17 5 13 3 -3 4 -12 1 -19z m-181 -39 c3 -6 -1 -18 -10 -27 -15 -15 -16 -14
-16 11 0 27 13 36 26 16z m39 -9 c-3 -5 -11 -10 -16 -10 -6 0 -7 5 -4 10 3 6
11 10 16 10 6 0 7 -4 4 -10z m94 -34 c-2 -2 -14 -7 -26 -10 -17 -6 -23 -3 -23
9 0 9 4 14 9 10 5 -3 13 0 16 6 5 8 10 8 18 0 6 -6 9 -12 6 -15z m-162 -48
c-3 -8 -6 -5 -6 6 -1 11 2 17 5 13 3 -3 4 -12 1 -19z m51 -12 c-4 -29 -22 -23
-26 9 -3 19 0 24 13 19 9 -4 15 -15 13 -28z m56 -39 c-3 -15 -10 -24 -15 -21
-11 6 -12 48 -2 58 13 12 24 -11 17 -37z m94 -23 c-3 -29 -23 -43 -40 -26 -6
6 -16 8 -22 6 -6 -2 -12 5 -13 17 -2 21 6 22 50 4 12 -5 17 -2 17 9 0 9 2 16
5 16 3 0 4 -12 3 -26z m-93 -24 c3 -5 -1 -10 -9 -10 -9 0 -16 5 -16 10 0 6 4
10 9 10 6 0 13 -4 16 -10z m245 -71 c0 -5 -4 -9 -10 -9 -5 0 -10 7 -10 16 0 8
5 12 10 9 6 -3 10 -10 10 -16z m-441 -1225 c2 -2 -8 -4 -22 -4 -15 0 -27 -5
-27 -11 0 -8 -5 -7 -15 1 -21 17 -29 7 -16 -19 9 -16 8 -26 -5 -46 -15 -23
-15 -25 0 -25 17 0 17 -10 1 -72 -5 -21 -3 -29 10 -34 16 -7 16 -8 -3 -23 -28
-22 -36 -127 -9 -125 9 1 17 -3 17 -10 0 -6 -12 -11 -27 -11 -28 0 -28 1 -25
58 4 65 -15 226 -28 242 -5 6 -12 30 -16 54 l-7 43 84 -6 c46 -4 85 -9 88 -12z
m147 8 c16 -10 24 -73 17 -137 -5 -46 -9 -55 -25 -55 -15 0 -19 6 -16 27 2 21
-2 28 -17 31 -16 3 -17 1 -5 -7 12 -9 11 -11 -8 -11 -12 0 -25 7 -28 15 -4 8
-12 15 -19 15 -29 0 -36 116 -7 123 28 8 96 7 108 -1z m-74 -176 c15 -22 8
-37 -14 -34 -17 2 -24 11 -26 30 -3 23 0 27 15 21 10 -4 21 -11 25 -17z m18
-66 c0 -5 -7 -10 -15 -10 -8 0 -15 5 -15 10 0 6 7 10 15 10 8 0 15 -4 15 -10z
m70 -45 c0 -32 -4 -45 -14 -45 -8 0 -16 -3 -19 -7 -2 -5 -2 -2 0 6 2 7 -2 20
-8 28 -9 10 -9 19 1 38 22 41 40 31 40 -20z m-210 -5 c0 -5 -4 -10 -10 -10 -5
0 -10 5 -10 10 0 6 5 10 10 10 6 0 10 -4 10 -10z m214 -116 c9 -23 7 -44 -3
-44 -5 0 -11 8 -15 18 -3 9 -9 23 -12 30 -3 6 1 12 9 12 8 0 18 -7 21 -16z
m-495 -20 c3 -2 -3 -109 -12 -237 -17 -220 -20 -333 -10 -294 7 26 23 21 23
-8 0 -14 -5 -25 -10 -25 -6 0 -8 -10 -4 -24 6 -24 4 -24 -49 -23 -31 0 -53 5
-50 10 3 5 -12 7 -33 5 -38 -3 -39 -3 -42 35 -2 20 -9 37 -15 37 -8 0 -8 3 1
9 10 6 13 54 12 212 0 112 -5 222 -10 244 -11 47 -5 55 47 66 35 7 143 2 152
-7z m212 -77 c-8 -8 -11 -3 -11 19 1 25 2 27 11 11 8 -14 8 -22 0 -30z m279
11 c0 -36 -12 -31 -16 7 -1 14 2 25 7 25 5 0 9 -14 9 -32z m-210 -18 c0 -25
-4 -30 -22 -30 -21 1 -21 2 -5 11 9 5 17 19 17 29 0 11 2 20 5 20 3 0 5 -13 5
-30z m-33 -50 c14 0 23 -6 23 -15 0 -9 -8 -14 -22 -12 -31 3 -48 21 -47 49 l0
23 11 -22 c7 -14 20 -23 35 -23z m251 -8 c4 -35 -8 -41 -32 -16 -17 17 -22 49
-6 39 6 -3 10 -1 10 5 0 26 25 1 28 -28z m1 -114 c-1 -31 -1 -31 -8 -8 -5 14
-6 28 -4 33 9 15 13 6 12 -25z m-216 -68 c-6 -21 -28 -27 -38 -10 -3 6 1 10 9
10 9 0 16 5 16 10 0 6 -5 10 -11 10 -5 0 -7 5 -4 10 11 18 34 -8 28 -30z m4
-36 c-3 -3 -12 -4 -19 -1 -8 3 -5 6 6 6 11 1 17 -2 13 -5z m-287 -54 c0 -5 -2
-10 -4 -10 -3 0 -8 5 -11 10 -3 6 -1 10 4 10 6 0 11 -4 11 -10z m380 -160 c0
-5 -9 -10 -19 -10 -11 0 -23 5 -26 10 -4 6 5 10 19 10 14 0 26 -4 26 -10z
m186 -32 c4 -6 2 -14 -4 -16 -7 -2 -12 -17 -12 -34 0 -23 -4 -29 -17 -26 -11
2 -17 11 -15 22 3 14 -3 17 -25 14 -16 -2 -27 -8 -26 -15 3 -13 -8 -16 -79
-28 -24 -4 -38 -2 -38 5 0 5 5 11 10 11 6 1 14 2 19 3 19 2 25 17 11 26 -13 8
-12 10 3 10 9 0 17 3 17 8 0 9 57 8 67 -1 10 -11 18 -8 43 13 27 23 36 25 46
8z m-201 -18 c3 -6 -1 -7 -9 -4 -18 7 -21 14 -7 14 6 0 13 -4 16 -10z m-628
-58 c-10 -10 -15 -21 -13 -23 2 -2 -28 -4 -67 -3 -45 1 -80 -4 -94 -12 -12 -8
-34 -14 -48 -14 -15 0 -36 -5 -48 -12 -12 -6 -37 -12 -55 -14 -29 -2 -33 0
-30 19 2 14 14 24 37 30 19 5 44 15 54 22 11 7 24 12 31 10 48 -14 66 -15 66
0 0 12 16 15 92 15 88 0 90 -1 75 -18z m106 -27 c-3 -9 -8 -14 -10 -11 -3 3
-2 9 2 15 9 16 15 13 8 -4z m-480 -30 c-4 -15 -36 -12 -41 3 -3 9 3 13 19 10
13 -1 23 -7 22 -13z m431 -14 c3 -5 -1 -14 -10 -21 -11 -10 -18 -10 -27 -1 -9
9 -9 14 3 21 19 12 27 12 34 1z m986 -52 c0 -14 -27 -10 -33 5 -4 10 0 12 14
9 10 -3 19 -9 19 -14z m130 1 c0 -5 -2 -10 -4 -10 -3 0 -8 5 -11 10 -3 6 -1
10 4 10 6 0 11 -4 11 -10z m-1513 -28 c-17 -19 -93 -31 -82 -12 3 5 19 10 36
10 16 0 29 5 29 10 0 6 7 10 17 10 15 0 15 -1 0 -18z m1756 1 c9 -3 17 -12 17
-20 0 -9 -7 -13 -17 -11 -10 2 -17 10 -15 16 2 14 -8 15 -27 3 -7 -5 -11 -13
-8 -18 9 -15 -40 -14 -53 2 -12 15 -6 35 11 35 6 0 7 -4 4 -10 -3 -5 0 -10 8
-10 8 0 18 7 21 16 4 11 12 14 24 9 9 -4 25 -10 35 -12z m231 11 c22 -9 20
-24 -3 -24 -21 0 -34 13 -24 24 8 7 8 7 27 0z m-164 -65 c0 -11 7 -19 18 -20
16 -1 16 -2 0 -6 -10 -2 -18 -11 -18 -19 0 -8 -7 -14 -16 -14 -10 0 -14 6 -10
15 3 9 0 15 -8 15 -10 0 -11 7 -2 34 8 27 14 32 23 24 7 -6 13 -19 13 -29z
m-1583 15 c-3 -3 -12 -4 -19 -1 -8 3 -5 6 6 6 11 1 17 -2 13 -5z m141 -6 c-3
-7 -10 -13 -16 -12 -7 1 -24 2 -39 4 l-28 2 30 8 c46 12 57 11 53 -2z m1056
-53 c-4 -8 -10 -15 -15 -15 -5 0 -9 7 -9 15 0 8 7 15 15 15 9 0 12 -6 9 -15z
m476 -5 c0 -5 -4 -10 -10 -10 -5 0 -10 5 -10 10 0 6 5 10 10 10 6 0 10 -4 10
-10z m258 -8 c14 11 15 10 9 -5 -4 -10 -7 -23 -7 -29 0 -6 -7 -7 -16 -4 -9 4
-23 1 -30 -5 -28 -23 -33 -2 -7 28 21 24 29 29 31 17 3 -13 6 -13 20 -2z
m-718 -57 c0 -9 6 -12 15 -9 18 7 20 -7 3 -24 -19 -19 -55 -15 -53 6 2 35 35
61 35 27z m-947 -41 c4 -21 7 -55 5 -74 -3 -33 -5 -35 -43 -38 -61 -5 -125 7
-125 23 0 8 10 17 23 20 14 4 28 19 35 37 6 16 16 27 21 23 14 -8 53 13 46 26
-4 5 -3 14 0 20 12 19 29 3 38 -37z m-285 10 c-2 -9 -14 -21 -27 -25 -19 -7
-22 -6 -17 6 3 8 1 15 -5 15 -6 0 -7 5 -4 10 3 6 17 10 31 10 18 0 25 -5 22
-16z m87 5 c4 -6 14 -8 22 -5 8 3 11 1 8 -4 -10 -16 -55 -12 -55 5 0 17 16 20
25 4z m1735 -33 c0 -25 -4 -56 -10 -70 -9 -24 -13 -25 -62 -22 -29 2 -68 5
-85 5 -40 1 -45 26 -7 35 18 5 24 12 20 24 -5 13 1 17 24 19 21 2 30 -2 30
-13 0 -8 -4 -12 -10 -9 -5 3 -10 -1 -10 -10 0 -16 45 -39 64 -31 6 2 3 5 -6 5
-9 1 -19 5 -23 10 -6 11 15 61 25 61 4 0 10 9 13 20 3 11 12 20 21 20 12 0 16
-10 16 -44z m-186 -20 c-3 -8 -13 -12 -27 -8 -20 5 -20 6 -1 13 29 11 34 10
28 -5z m-379 -6 c3 -5 1 -10 -4 -10 -6 0 -11 5 -11 10 0 6 2 10 4 10 3 0 8 -4
11 -10z m-1238 -16 c-3 -3 -12 -4 -19 -1 -8 3 -5 6 6 6 11 1 17 -2 13 -5z
m1483 -5 c0 -6 -6 -9 -14 -6 -7 3 -19 0 -25 -6 -13 -13 -26 -3 -16 12 8 14 55
14 55 0z m-1520 -15 c0 -10 -7 -14 -22 -12 -32 5 -35 28 -4 28 17 0 26 -5 26
-16z m130 12 c0 -11 -19 -15 -25 -6 -3 5 1 10 9 10 9 0 16 -2 16 -4z m-265
-27 c-55 -17 -125 -20 -125 -5 0 10 19 13 78 14 62 1 71 -1 47 -9z"/>
<path d="M2695 2270 c3 -5 8 -10 11 -10 2 0 4 5 4 10 0 6 -5 10 -11 10 -5 0
-7 -4 -4 -10z"/>
<path d="M2720 2110 c0 -5 5 -10 10 -10 6 0 10 5 10 10 0 6 -4 10 -10 10 -5 0
-10 -4 -10 -10z"/>
<path d="M4030 4435 c-7 -8 -10 -20 -7 -28 2 -7 -1 -41 -9 -77 -11 -55 -11
-67 0 -79 12 -11 17 -9 30 15 16 27 16 27 10 4 -3 -14 -12 -32 -19 -40 -15
-19 -45 -80 -39 -80 14 0 81 76 90 103 7 20 18 33 32 35 17 3 20 9 17 30 -2
15 -7 44 -10 64 -4 28 -13 40 -37 52 -38 20 -42 20 -58 1z"/>
<path d="M3810 4419 c0 -5 5 -7 10 -4 6 3 10 8 10 11 0 2 -4 4 -10 4 -5 0 -10
-5 -10 -11z"/>
<path d="M2010 4362 c0 -9 19 -46 41 -82 23 -36 48 -76 56 -89 17 -26 30 -18
33 19 3 39 1 43 -14 31 -11 -10 -20 -1 -48 44 -18 31 -37 65 -43 76 -12 24
-25 25 -25 1z"/>
<path d="M4150 4370 c-9 -6 -10 -10 -3 -10 6 0 15 5 18 10 8 12 4 12 -15 0z"/>
<path d="M2730 4359 c0 -5 5 -7 10 -4 6 3 10 8 10 11 0 2 -4 4 -10 4 -5 0 -10
-5 -10 -11z"/>
<path d="M3602 4115 c-24 -49 -13 -71 15 -28 9 15 18 30 20 32 7 11 39 -30 68
-89 17 -36 39 -79 49 -97 9 -17 23 -67 31 -110 8 -43 19 -94 24 -113 5 -19 15
-73 21 -120 6 -47 20 -128 30 -180 20 -98 35 -238 45 -420 3 -58 13 -161 20
-230 8 -69 15 -148 15 -176 0 -56 15 -111 36 -133 11 -12 13 3 10 92 l-4 106
36 7 c20 4 49 2 66 -5 19 -7 32 -7 34 -2 2 6 9 8 15 5 7 -2 44 -6 82 -8 199
-12 315 -33 315 -57 0 -3 9 -15 19 -26 16 -17 19 -34 18 -97 -1 -42 1 -76 6
-76 4 0 7 -18 7 -40 0 -22 4 -40 8 -40 4 0 6 65 4 145 l-3 145 25 0 c16 0 32
-10 46 -30 22 -30 47 -41 37 -17 -3 8 -2 19 3 26 4 7 -2 33 -15 59 -13 26 -37
85 -55 132 -19 47 -38 90 -44 95 -6 6 -12 23 -14 38 -2 16 -8 40 -14 55 -6 15
-12 34 -12 42 -1 8 -7 15 -15 15 -8 0 -16 6 -19 14 -3 8 0 11 5 8 19 -12 9 29
-13 56 -13 16 -24 36 -24 46 0 17 -110 239 -134 271 -29 39 -48 84 -43 106 5
30 -5 35 -108 54 -38 7 -98 22 -132 32 -75 24 -107 19 -37 -6 52 -19 108 -31
187 -42 40 -6 47 -10 47 -29 0 -20 24 -71 114 -240 21 -38 51 -103 68 -143 16
-40 37 -79 45 -87 8 -8 12 -15 9 -15 -3 0 8 -37 25 -82 19 -53 26 -85 19 -92
-6 -6 -13 0 -19 16 -13 34 -23 38 -42 18 -15 -16 -14 -20 2 -51 10 -19 21 -42
25 -51 4 -10 17 -18 30 -18 12 0 30 -10 38 -22 17 -23 12 -42 -9 -34 -12 4
-12 -1 -6 -33 1 -2 8 2 16 9 9 7 16 11 18 9 36 -63 36 -79 0 -79 -14 0 -35 8
-45 17 -16 14 -21 15 -27 4 -5 -8 -13 -11 -17 -8 -5 2 -58 8 -119 12 -60 4
-117 11 -127 16 -9 5 -41 9 -72 9 -30 0 -58 5 -61 10 -5 8 -11 7 -20 0 -13
-11 -108 -10 -119 0 -2 3 -7 39 -11 80 -3 41 -8 98 -11 125 -3 28 -6 102 -6
165 0 63 -4 120 -9 126 -5 6 -5 31 0 57 6 36 5 47 -5 51 -8 3 -14 18 -14 33 0
16 -11 64 -25 108 -15 44 -29 109 -32 144 l-6 64 24 -7 c56 -17 72 -16 32 3
-24 11 -43 25 -43 31 0 5 -8 10 -18 10 -11 0 -23 15 -33 45 -9 25 -13 45 -10
45 4 0 5 16 3 35 -2 19 -8 35 -14 35 -5 0 -7 9 -3 19 7 23 -14 77 -44 110 -11
13 -21 30 -21 38 0 8 -18 41 -40 73 -22 32 -40 64 -40 69 0 6 -8 11 -18 11
-11 0 -26 -16 -40 -45z m898 -1230 c0 -8 -4 -15 -10 -15 -5 0 -7 7 -4 15 4 8
8 15 10 15 2 0 4 -7 4 -15z m36 -62 c-4 -4 -11 -1 -16 7 -16 25 -11 35 7 17 9
-9 13 -20 9 -24z"/>
<path d="M5 3620 c9 -53 13 -60 25 -40 15 24 12 46 -11 66 l-21 19 7 -45z"/>
<path d="M2111 3593 c-8 -3 -37 -23 -65 -44 -51 -39 -76 -48 -76 -28 0 13 -42
8 -47 -6 -2 -6 6 -11 18 -12 30 -3 35 -11 17 -26 -22 -17 -108 -132 -143 -192
-17 -27 -34 -57 -40 -66 -50 -78 -72 -105 -83 -101 -6 2 -12 -1 -12 -8 0 -12
-5 -18 -50 -70 l-30 -35 6 30 c10 47 64 155 106 212 21 29 38 59 38 68 0 8 11
25 24 36 14 12 30 41 37 65 11 35 17 43 31 38 10 -3 18 -1 18 5 0 6 -7 11 -15
11 -20 0 -19 16 2 24 12 5 13 10 5 18 -6 6 -8 17 -5 24 3 8 1 14 -5 14 -10 0
-72 -87 -72 -102 0 -4 -6 -8 -13 -8 -7 0 -21 -17 -32 -37 -11 -21 -23 -40 -26
-43 -3 -3 -9 -12 -12 -20 -4 -12 -6 -11 -6 3 -2 37 -42 5 -46 -37 -2 -19 1
-23 16 -19 11 3 19 0 19 -7 0 -8 -9 -11 -28 -7 -21 4 -31 1 -41 -15 -7 -11
-10 -23 -7 -26 3 -3 6 0 6 6 0 7 7 12 16 12 11 0 14 -6 9 -20 -4 -12 -2 -20 5
-20 6 0 2 -17 -12 -41 -18 -33 -26 -39 -45 -34 -31 7 -62 -26 -88 -94 -11 -28
-25 -51 -32 -51 -16 0 -30 -53 -15 -58 7 -2 9 -15 5 -33 -3 -16 -3 -29 0 -29
3 0 26 20 50 45 43 43 67 56 67 35 0 -20 23 -9 59 29 77 83 98 108 129 154 35
50 39 52 62 38 12 -8 9 -14 -13 -37 -15 -15 -27 -32 -27 -39 0 -7 -7 -15 -15
-19 -16 -6 -21 -26 -6 -26 4 0 20 11 34 25 17 18 26 22 29 13 3 -8 9 -4 17 11
9 16 9 21 2 16 -13 -7 -6 35 11 68 5 10 5 17 -1 17 -5 0 -11 -6 -14 -12 -3
-10 -7 -10 -17 -1 -9 8 -8 15 8 31 11 11 18 23 15 25 -7 8 40 86 56 92 23 9
37 -12 23 -35 -10 -16 -10 -20 1 -20 6 0 18 9 25 21 10 16 20 20 41 16 23 -5
30 -1 45 23 14 26 15 29 1 24 -8 -3 -15 -12 -15 -19 0 -8 -5 -17 -10 -20 -6
-4 -10 5 -8 24 1 16 6 27 12 24 5 -4 7 1 3 12 -4 9 -2 23 3 31 6 7 12 23 14
36 4 36 25 68 45 68 10 0 21 9 24 20 3 14 14 20 31 20 26 0 31 -10 27 -52 -2
-13 3 -16 14 -12 17 7 16 34 -5 77 -13 27 -22 31 -49 20z m-129 -185 c-7 -7
-12 -19 -12 -28 0 -8 -9 -21 -19 -27 -16 -10 -20 -9 -25 4 -4 9 1 21 11 29 10
7 14 14 8 14 -15 1 18 20 35 20 11 0 11 -3 2 -12z m-402 -312 c0 -22 -26 -43
-38 -32 -5 6 25 56 33 56 3 0 5 -11 5 -24z m-110 -140 c0 -3 -4 -8 -10 -11 -5
-3 -10 -1 -10 4 0 6 5 11 10 11 6 0 10 -2 10 -4z"/>
<path d="M2910 3584 c0 -8 5 -12 10 -9 6 3 10 10 10 16 0 5 -4 9 -10 9 -5 0
-10 -7 -10 -16z"/>
<path d="M2200 3570 c0 -5 7 -10 16 -10 8 0 12 5 9 10 -3 6 -10 10 -16 10 -5
0 -9 -4 -9 -10z"/>
<path d="M2710 3564 c0 -28 30 -54 63 -54 22 0 27 5 27 24 0 17 -7 26 -25 30
-14 4 -31 4 -37 0 -5 -4 -14 0 -19 7 -7 11 -9 9 -9 -7z"/>
<path d="M2991 3534 c0 -11 3 -14 6 -6 3 7 2 16 -1 19 -3 4 -6 -2 -5 -13z"/>
<path d="M4324 3533 c9 -9 179 -51 236 -58 25 -3 -13 10 -85 30 -131 35 -164
41 -151 28z"/>
<path d="M2073 3495 c-9 -24 1 -27 15 -5 8 13 8 20 2 20 -6 0 -13 -7 -17 -15z"/>
<path d="M2560 3500 c0 -5 7 -10 15 -10 8 0 15 5 15 10 0 6 -7 10 -15 10 -8 0
-15 -4 -15 -10z"/>
<path d="M1890 3465 c7 -9 15 -13 17 -11 7 7 -7 26 -19 26 -6 0 -6 -6 2 -15z"/>
<path d="M3920 3470 c0 -5 7 -10 15 -10 8 0 15 5 15 10 0 6 -7 10 -15 10 -8 0
-15 -4 -15 -10z"/>
<path d="M2240 3439 c0 -5 5 -7 10 -4 6 3 10 8 10 11 0 2 -4 4 -10 4 -5 0 -10
-5 -10 -11z"/>
<path d="M4075 3413 c-7 -43 -8 -50 -6 -78 l2 -20 11 20 c15 25 20 102 8 110
-5 3 -12 -11 -15 -32z"/>
<path d="M3155 3390 c-3 -5 -1 -10 4 -10 6 0 11 5 11 10 0 6 -2 10 -4 10 -3 0
-8 -4 -11 -10z"/>
<path d="M4116 3374 c-3 -9 -3 -20 0 -25 3 -6 1 -16 -5 -23 -17 -20 13 -43 33
-27 11 10 20 9 40 -1 23 -12 25 -16 13 -32 -14 -19 -43 -14 -32 5 13 21 -6 7
-20 -15 -19 -29 -11 -52 19 -58 18 -4 22 -1 19 13 -6 21 15 35 30 20 16 -16
47 -13 47 5 0 27 -18 51 -50 64 -16 7 -30 17 -30 22 0 6 -6 8 -14 5 -20 -8
-28 4 -15 20 9 10 7 13 -9 13 -15 0 -20 5 -16 15 4 8 4 15 1 15 -3 0 -8 -7
-11 -16z m119 -114 c3 -5 1 -10 -4 -10 -6 0 -11 5 -11 10 0 6 2 10 4 10 3 0 8
-4 11 -10z"/>
<path d="M3070 3370 c0 -5 5 -10 10 -10 6 0 10 5 10 10 0 6 -4 10 -10 10 -5 0
-10 -4 -10 -10z"/>
<path d="M41 3324 c-7 -25 -11 -47 -9 -50 3 -2 11 16 18 41 7 25 11 48 8 50
-2 2 -10 -16 -17 -41z"/>
<path d="M2365 3359 c-11 -16 -1 -19 13 -3 7 8 8 14 3 14 -5 0 -13 -5 -16 -11z"/>
<path d="M3120 3360 c0 -5 4 -10 9 -10 6 0 13 5 16 10 3 6 -1 10 -9 10 -9 0
-16 -4 -16 -10z"/>
<path d="M3962 3357 c-9 -10 -6 -17 9 -31 27 -23 33 -16 16 18 -11 21 -17 24
-25 13z"/>
<path d="M3378 3322 c-37 -3 -50 -16 -26 -24 9 -3 8 -16 -6 -49 -16 -41 -51
-161 -63 -219 -2 -14 -11 -46 -19 -72 -9 -26 -16 -93 -17 -155 l-2 -108 65
-10 c36 -5 70 -13 75 -16 6 -4 34 -7 63 -8 29 0 58 -4 64 -7 6 -4 39 -13 72
-20 73 -15 87 -7 91 53 3 46 29 203 55 333 28 141 42 247 35 269 -6 18 -16 20
-148 20 -78 0 -155 4 -172 8 -16 5 -47 7 -67 5z m222 -35 c0 -5 19 -8 43 -7
89 4 87 4 87 -44 0 -24 -9 -88 -21 -142 -12 -55 -21 -106 -20 -114 0 -21 -28
-194 -44 -260 -14 -62 -6 -59 -125 -45 -36 4 -73 12 -84 17 -10 6 -42 11 -71
11 -83 3 -89 13 -81 136 3 58 10 107 14 110 7 6 24 71 42 166 4 22 18 69 32
105 23 59 28 66 59 71 48 9 169 6 169 -4z"/>
<path d="M3516 3242 c-7 -11 -20 -208 -13 -202 8 8 37 150 37 183 0 25 -13 36
-24 19z"/>
<path d="M3490 3017 c0 -7 -5 -18 -12 -25 -7 -7 -11 -29 -9 -50 1 -21 -7 -66
-19 -100 -12 -34 -20 -68 -17 -75 2 -6 8 2 12 18 4 17 11 35 16 41 4 5 14 40
21 77 l13 67 50 1 c58 2 122 15 90 19 -11 1 -44 2 -72 0 -48 -2 -53 0 -53 19
0 12 -4 21 -10 21 -5 0 -10 -6 -10 -13z"/>
<path d="M3325 2970 c-4 -6 7 -10 24 -10 17 0 31 5 31 10 0 6 -11 10 -24 10
-14 0 -28 -4 -31 -10z"/>
<path d="M3420 2739 c0 -5 5 -7 10 -4 6 3 10 8 10 11 0 2 -4 4 -10 4 -5 0 -10
-5 -10 -11z"/>
<path d="M2259 3293 c-13 -17 -13 -17 6 -3 11 8 22 16 24 17 2 2 0 3 -6 3 -6
0 -17 -8 -24 -17z"/>
<path d="M2300 3278 c0 -4 7 -8 15 -8 8 0 15 4 15 8 0 5 -7 9 -15 9 -8 0 -15
-4 -15 -9z"/>
<path d="M4270 3275 c0 -16 9 -19 34 -9 20 8 11 24 -15 24 -10 0 -19 -7 -19
-15z"/>
<path d="M3000 3244 c-13 -21 -31 -44 -40 -51 -12 -9 -13 -14 -2 -24 9 -10 12
-10 12 -1 0 7 6 12 14 12 9 0 12 7 9 19 -3 11 4 27 17 39 12 11 20 26 18 33
-2 7 -15 -5 -28 -27z"/>
<path d="M3984 3256 c-5 -19 -2 -32 10 -44 15 -15 16 -14 16 13 0 17 -4 37 -9
44 -8 12 -11 9 -17 -13z"/>
<path d="M4074 3243 c0 -25 5 -38 10 -33 5 6 5 22 -1 42 l-11 33 2 -42z"/>
<path d="M1863 3253 c-17 -6 -16 -33 1 -33 7 0 16 9 19 20 5 20 2 22 -20 13z"/>
<path d="M1945 3250 c3 -5 11 -10 16 -10 6 0 7 5 4 10 -3 6 -11 10 -16 10 -6
0 -7 -4 -4 -10z"/>
<path d="M2704 3202 c-5 -4 -23 -24 -38 -44 -20 -27 -24 -38 -14 -38 18 0 53
39 60 68 7 25 7 24 -8 14z"/>
<path d="M4288 3205 c-8 -8 13 -85 23 -85 5 0 6 8 3 18 -5 14 -4 15 5 2 8 -11
7 -18 -3 -25 -7 -5 -20 -25 -30 -42 l-17 -33 26 0 c19 0 25 -5 25 -21 0 -11 7
-27 15 -36 14 -14 14 -17 0 -32 -19 -22 -19 -31 0 -31 8 0 15 5 15 11 0 6 8 8
18 5 21 -7 47 8 38 22 -3 6 0 13 6 16 10 3 8 8 -4 19 -14 11 -15 16 -5 26 9
10 8 14 -5 22 -10 6 -18 18 -18 28 0 10 -11 28 -25 41 -14 13 -25 33 -25 46 0
12 -7 25 -16 28 -8 3 -12 10 -9 16 6 10 -8 14 -17 5z"/>
<path d="M4023 3165 c-15 -16 -16 -25 -5 -25 4 0 13 9 20 20 14 23 3 26 -15 5z"/>
<path d="M4077 3143 c-4 -20 -3 -56 0 -80 4 -32 2 -47 -7 -53 -19 -11 15 -44
36 -36 14 5 14 9 3 22 -8 10 -12 41 -10 94 2 82 -12 116 -22 53z"/>
<path d="M4167 3163 c-4 -3 -7 -11 -7 -17 0 -6 5 -5 12 2 6 6 9 14 7 17 -3 3
-9 2 -12 -2z"/>
<path d="M4236 3162 c-3 -5 1 -9 9 -9 8 0 12 4 9 9 -3 4 -7 8 -9 8 -2 0 -6 -4
-9 -8z"/>
<path d="M2930 3139 c0 -5 5 -7 10 -4 6 3 10 8 10 11 0 2 -4 4 -10 4 -5 0 -10
-5 -10 -11z"/>
<path d="M2596 3065 c-9 -14 -13 -25 -9 -25 10 0 36 40 30 46 -2 3 -12 -7 -21
-21z"/>
<path d="M4030 3066 c0 -9 5 -16 10 -16 6 0 10 4 10 9 0 6 -4 13 -10 16 -5 3
-10 -1 -10 -9z"/>
<path d="M2862 3044 c-7 -8 -12 -19 -10 -25 2 -6 12 -2 21 9 10 11 15 22 10
25 -4 3 -14 -2 -21 -9z"/>
<path d="M2551 3021 c-10 -17 -9 -21 3 -21 20 0 31 19 18 32 -7 7 -14 3 -21
-11z"/>
<path d="M1790 3020 c0 -5 5 -10 10 -10 6 0 10 5 10 10 0 6 -4 10 -10 10 -5 0
-10 -4 -10 -10z"/>
<path d="M4450 2980 c0 -5 5 -10 10 -10 6 0 10 5 10 10 0 6 -4 10 -10 10 -5 0
-10 -4 -10 -10z"/>
<path d="M1660 2949 c0 -5 5 -7 10 -4 6 3 10 8 10 11 0 2 -4 4 -10 4 -5 0 -10
-5 -10 -11z"/>
<path d="M4084 2933 c2 -16 4 -35 5 -43 1 -13 2 -13 11 0 15 23 12 70 -4 70
-10 0 -14 -9 -12 -27z"/>
<path d="M4131 2944 c0 -11 3 -14 6 -6 3 7 2 16 -1 19 -3 4 -6 -2 -5 -13z"/>
<path d="M4476 2947 c3 -10 9 -15 12 -12 3 3 0 11 -7 18 -10 9 -11 8 -5 -6z"/>
<path d="M4100 2850 c0 -5 5 -10 11 -10 5 0 7 5 4 10 -3 6 -8 10 -11 10 -2 0
-4 -4 -4 -10z"/>
<path d="M4420 2754 c0 -8 5 -12 10 -9 6 3 10 10 10 16 0 5 -4 9 -10 9 -5 0
-10 -7 -10 -16z"/>
<path d="M1521 2599 c3 -69 19 -73 19 -5 0 33 -4 56 -10 56 -7 0 -10 -20 -9
-51z"/>
<path d="M4201 2593 c0 -6 -4 -20 -7 -30 -5 -14 -4 -15 5 -7 7 7 11 20 8 30
-3 11 -5 14 -6 7z"/>
<path d="M1522 2490 c0 -25 -3 -109 -7 -187 -6 -104 -5 -143 3 -143 8 0 11 35
11 110 0 60 3 136 7 168 4 37 2 67 -4 78 -9 16 -11 11 -10 -26z"/>
<path d="M3030 2512 c18 -11 228 -37 236 -30 5 5 -92 21 -201 34 -33 3 -45 2
-35 -4z"/>
<path d="M4210 2478 c0 -4 4 -8 9 -8 6 0 12 4 15 8 3 5 -1 9 -9 9 -8 0 -15 -4
-15 -9z"/>
<path d="M3350 2470 c159 -38 360 -62 360 -43 0 6 -43 13 -97 17 -54 4 -118
11 -143 16 -25 5 -70 11 -100 14 -44 4 -48 3 -20 -4z"/>
<path d="M3730 2422 c0 -17 190 -45 205 -30 6 5 -33 13 -162 33 -26 4 -43 3
-43 -3z"/>
<path d="M4010 2400 c-6 -11 -8 -25 -5 -30 5 -9 9 -126 5 -140 -2 -5 -5 -57
-14 -200 -3 -47 -1 -92 4 -100 5 -8 5 -19 1 -25 -4 -5 -4 -75 1 -155 16 -269
20 -510 8 -525 -6 -7 -13 -33 -15 -57 -3 -23 -10 -86 -15 -138 -6 -52 -8 -112
-5 -132 4 -28 1 -39 -12 -47 -14 -8 -15 -13 -6 -33 6 -12 14 -31 17 -41 9 -29
23 -11 18 23 -2 17 0 30 6 30 6 0 11 8 11 18 0 9 7 51 16 92 15 74 24 150 25
222 0 29 3 36 15 32 8 -4 15 -1 15 6 0 7 7 10 15 7 8 -4 17 -2 20 3 4 6 15 10
26 10 10 0 19 5 19 10 0 14 -27 12 -60 -5 -16 -8 -31 -12 -33 -7 -3 4 -5 54
-5 112 0 58 -1 107 -2 110 0 3 -2 51 -4 108 -1 57 -7 107 -12 110 -10 7 -13
112 -3 112 3 0 2 28 -2 63 -9 66 -5 215 14 547 2 41 -25 54 -43 20z m21 -1241
c-10 -23 -10 -23 -10 7 -1 17 2 34 7 38 11 12 14 -18 3 -45z"/>
<path d="M4175 2390 c3 -5 8 -10 11 -10 2 0 4 5 4 10 0 6 -5 10 -11 10 -5 0
-7 -4 -4 -10z"/>
<path d="M4290 2380 c0 -5 5 -10 10 -10 6 0 10 5 10 10 0 6 -4 10 -10 10 -5 0
-10 -4 -10 -10z"/>
<path d="M3305 2300 c3 -5 10 -10 16 -10 5 0 9 5 9 10 0 6 -7 10 -16 10 -8 0
-12 -4 -9 -10z"/>
<path d="M4574 2289 c-3 -6 -1 -16 5 -22 8 -8 11 -5 11 11 0 24 -5 28 -16 11z"/>
<path d="M3585 2254 c-151 -19 -195 -27 -305 -51 -14 -3 -37 -5 -52 -4 -16 1
-28 -2 -28 -7 0 -6 18 -12 40 -14 22 -2 40 0 40 4 0 3 26 9 58 13 31 3 77 10
102 15 25 5 88 12 142 15 l96 6 -5 -38 c-4 -28 -1 -43 11 -52 18 -15 21 -41 5
-41 -6 0 -10 -29 -10 -77 1 -43 1 -87 1 -98 -2 -173 2 -245 16 -245 21 0 29
27 13 46 -11 14 -11 18 4 29 19 13 23 35 7 35 -5 0 -10 7 -10 16 0 8 5 12 10
9 13 -8 13 20 1 62 -7 25 -6 35 5 41 11 6 12 15 5 37 -14 43 -22 265 -10 287
6 11 6 18 0 18 -5 0 -15 2 -23 4 -7 2 -58 -3 -113 -10z"/>
<path d="M4579 2244 c-6 -40 -7 -54 -7 -94 -1 -96 -5 -207 -8 -250 -3 -49 -3
-115 1 -170 1 -19 5 -84 9 -145 3 -60 9 -136 11 -168 5 -53 3 -58 -13 -53 -15
5 -18 0 -18 -29 0 -19 4 -35 8 -35 4 0 8 -9 8 -20 0 -11 -6 -20 -13 -20 -16 0
-38 -168 -24 -177 4 -2 4 -10 -1 -16 -16 -19 -24 -129 -13 -166 7 -22 7 -39 1
-46 -5 -7 -7 -15 -3 -19 12 -12 -19 -26 -62 -27 l-40 -2 50 -8 c100 -18 90
-29 92 106 1 66 5 145 9 175 11 82 9 113 -6 90 -8 -13 -10 -12 -10 3 0 9 7 17
15 17 8 0 15 3 15 8 0 4 5 39 11 77 5 39 12 84 14 100 7 47 6 383 -1 413 -4
15 -11 33 -17 40 -5 6 -5 12 -1 12 11 0 11 396 1 407 -4 3 -8 2 -8 -3z"/>
<path d="M3472 2183 c4 -24 24 -27 24 -3 0 11 -6 20 -14 20 -7 0 -12 -8 -10
-17z"/>
<path d="M4200 2144 c0 -8 5 -12 10 -9 6 3 10 10 10 16 0 5 -4 9 -10 9 -5 0
-10 -7 -10 -16z"/>
<path d="M3481 2124 c0 -11 3 -14 6 -6 3 7 2 16 -1 19 -3 4 -6 -2 -5 -13z"/>
<path d="M3245 2111 c3 -5 7 -59 10 -119 4 -92 3 -111 -10 -116 -20 -7 -19
-26 2 -26 14 0 15 -14 9 -144 -4 -79 -13 -176 -20 -215 -8 -40 -10 -74 -5 -77
5 -3 9 -2 9 3 0 4 4 2 8 -5 7 -10 16 -9 45 3 44 18 48 27 8 19 -22 -5 -29 -2
-33 14 -3 10 -1 27 4 37 6 9 8 29 5 45 -3 15 -2 31 3 36 8 8 18 135 24 309 3
68 -8 191 -20 227 -3 10 -14 18 -25 18 -11 0 -18 -4 -14 -9z"/>
<path d="M3492 2065 c0 -16 2 -22 5 -12 2 9 2 23 0 30 -3 6 -5 -1 -5 -18z"/>
<path d="M3489 1912 c-6 -36 -3 -43 17 -35 9 3 11 9 5 17 -5 6 -11 20 -13 31
-3 14 -6 11 -9 -13z"/>
<path d="M2370 1885 c0 -8 5 -15 10 -15 6 0 10 7 10 15 0 8 -4 15 -10 15 -5 0
-10 -7 -10 -15z"/>
<path d="M1852 1740 c0 -14 2 -19 5 -12 2 6 2 18 0 25 -3 6 -5 1 -5 -13z"/>
<path d="M1848 1681 c-3 -18 -1 -34 3 -36 10 -7 18 41 9 55 -4 7 -9 -1 -12
-19z"/>
<path d="M3688 1665 c-9 -10 4 -200 15 -207 22 -13 36 3 30 35 -3 18 -10 37
-14 43 -5 6 -4 15 2 21 8 8 8 13 0 17 -7 5 -8 13 -1 25 14 27 -14 84 -32 66z"/>
<path d="M1840 1606 c0 -9 5 -16 10 -16 6 0 10 4 10 9 0 6 -4 13 -10 16 -5 3
-10 -1 -10 -9z"/>
<path d="M4214 1477 c-3 -9 0 -25 6 -37 6 -12 9 -28 6 -36 -3 -8 1 -17 9 -20
10 -4 15 -20 15 -44 0 -22 4 -41 9 -44 20 -13 24 95 5 125 -4 6 0 15 7 20 11
7 10 9 -4 9 -11 0 -17 6 -15 17 4 22 -30 30 -38 10z"/>
<path d="M4131 1454 c0 -11 3 -14 6 -6 3 7 2 16 -1 19 -3 4 -6 -2 -5 -13z"/>
<path d="M3360 1430 c0 -5 7 -7 15 -4 8 4 15 8 15 10 0 2 -7 4 -15 4 -8 0 -15
-4 -15 -10z"/>
<path d="M4210 1344 c0 -8 5 -12 10 -9 6 3 10 10 10 16 0 5 -4 9 -10 9 -5 0
-10 -7 -10 -16z"/>
<path d="M4202 1230 c0 -14 2 -19 5 -12 2 6 2 18 0 25 -3 6 -5 1 -5 -13z"/>
<path d="M2885 1210 c3 -5 8 -10 11 -10 2 0 4 5 4 10 0 6 -5 10 -11 10 -5 0
-7 -4 -4 -10z"/>
<path d="M3930 1168 c0 -15 16 -16 35 -2 18 13 18 14 -8 12 -15 -1 -27 -6 -27
-10z"/>
<path d="M4198 1170 c-3 -8 -9 -40 -11 -70 l-5 -55 14 34 c8 18 14 50 12 70
-2 21 -6 30 -10 21z"/>
<path d="M3865 1150 c-7 -11 -8 -11 23 -14 25 -3 30 9 6 18 -21 8 -22 8 -29
-4z"/>
<path d="M3915 1121 c-10 -17 12 -21 25 -6 10 12 10 15 -3 15 -9 0 -18 -4 -22
-9z"/>
<path d="M4182 1020 c0 -14 2 -19 5 -12 2 6 2 18 0 25 -3 6 -5 1 -5 -13z"/>
<path d="M4142 990 c0 -14 2 -19 5 -12 2 6 2 18 0 25 -3 6 -5 1 -5 -13z"/>
<path d="M2375 892 c-60 -1 -113 -6 -118 -11 -11 -11 461 -13 498 -2 21 7 -11
9 -111 9 -78 -1 -145 1 -150 3 -5 2 -58 3 -119 1z"/>
<path d="M4158 793 c12 -2 30 -2 40 0 9 3 -1 5 -23 4 -22 0 -30 -2 -17 -4z"/>
<path d="M4253 793 c9 -2 23 -2 30 0 6 3 -1 5 -18 5 -16 0 -22 -2 -12 -5z"/>
<path d="M3804 782 c4 -7 16 -12 26 -12 22 0 36 -16 18 -22 -7 -3 -8 -7 -3
-10 6 -2 35 3 65 13 58 19 59 20 20 24 -14 2 -49 6 -79 11 -40 5 -52 4 -47 -4z"/>
<path d="M4048 773 c7 -3 16 -2 19 1 4 3 -2 6 -13 5 -11 0 -14 -3 -6 -6z"/>
<path d="M5194 556 c-4 -9 -18 -16 -34 -16 -16 0 -32 -4 -35 -10 -3 -5 -17
-10 -31 -10 -14 0 -33 -4 -43 -10 -23 -12 -53 -91 -49 -127 2 -24 8 -29 36
-31 24 -2 36 -10 45 -29 10 -22 8 -28 -13 -45 -16 -13 -25 -15 -30 -7 -9 13
-44 8 -43 -6 1 -5 10 -14 20 -20 10 -5 20 -12 23 -15 17 -19 71 -50 96 -55 94
-20 144 -41 144 -59 0 -12 5 -16 15 -12 9 3 15 0 15 -9 0 -14 -4 -17 -32 -18
-20 -1 -118 37 -118 45 0 13 38 9 43 -4 4 -10 6 -10 6 0 1 8 -8 16 -19 19 -11
3 -20 10 -20 15 0 6 -11 8 -25 6 -14 -3 -25 -2 -25 2 0 16 -31 19 -64 5 -20
-9 -47 -12 -65 -9 -26 6 -31 3 -31 -14 0 -12 11 -24 30 -32 17 -7 33 -22 36
-34 4 -18 11 -21 49 -18 26 2 45 0 45 -6 0 -6 14 -15 31 -21 17 -6 28 -15 25
-20 -4 -6 77 -10 215 -11 l221 -1 -6 27 c-5 20 1 40 26 80 18 30 36 54 40 54
4 0 8 5 8 11 0 6 15 32 34 58 18 25 36 62 40 82 l6 36 -47 6 c-28 3 -87 25
-142 53 -63 32 -96 44 -99 36 -6 -19 -30 -14 -44 8 -7 11 -18 20 -24 20 -15 0
-129 54 -171 81 -29 18 -34 19 -39 5z m163 -362 c-3 -3 -12 -4 -19 -1 -8 3 -5
6 6 6 11 1 17 -2 13 -5z m-250 -40 c-3 -3 -12 -4 -19 -1 -8 3 -5 6 6 6 11 1
17 -2 13 -5z"/>
<path d="M4930 451 c-14 -9 -31 -24 -38 -33 -10 -14 -18 -15 -39 -7 -28 10
-53 -2 -53 -27 0 -8 -4 -14 -10 -14 -5 0 -16 -13 -24 -29 -11 -21 -12 -31 -3
-40 8 -8 8 -11 -1 -11 -7 0 -12 -7 -12 -15 0 -11 -12 -15 -45 -15 -50 0 -55
-8 -25 -50 24 -33 21 -36 -43 -45 -51 -8 -52 -9 -62 -67 -3 -21 -11 -38 -18
-38 -7 0 -25 -13 -40 -30 l-29 -30 192 0 193 0 -5 70 c-4 52 -2 73 8 81 22 18
16 45 -15 72 -34 28 -25 47 20 47 39 0 55 24 40 58 -12 25 -10 29 23 58 55 48
43 102 -14 65z"/>
<path d="M4858 243 c7 -3 16 -2 19 1 4 3 -2 6 -13 5 -11 0 -14 -3 -6 -6z"/>
<path d="M5731 103 c-28 -27 -71 -84 -71 -95 0 -4 15 -8 34 -8 43 0 68 35 64
88 l-3 37 -24 -22z"/>
<path d="M12 98 c-7 -7 -11 -32 -11 -57 1 -30 3 -37 6 -18 5 30 23 27 23 -4 0
-15 7 -19 37 -19 29 0 34 3 25 12 -7 7 -12 23 -12 36 0 51 -38 80 -68 50z"/>
<path d="M203 87 c-46 -11 -52 -22 -28 -53 15 -19 15 -19 30 0 8 11 15 25 15
32 0 7 10 14 23 16 12 2 18 6 12 9 -5 3 -29 1 -52 -4z"/>
<path d="M285 90 c-3 -5 1 -10 10 -10 9 0 13 5 10 10 -3 6 -8 10 -10 10 -2 0
-7 -4 -10 -10z"/>
<path d="M124 68 c0 -12 7 -23 14 -26 16 -5 15 23 -2 37 -10 9 -13 7 -12 -11z"/>
<path d="M320 72 c0 -6 -10 -12 -22 -14 -13 -2 -23 -10 -23 -18 0 -8 10 -16
23 -18 12 -2 22 -8 22 -13 0 -5 23 -9 50 -9 32 0 50 4 50 12 0 9 3 9 12 0 14
-14 88 -16 88 -3 0 5 -16 18 -35 30 -27 16 -41 18 -60 11 -20 -7 -25 -6 -25 5
0 8 -8 15 -17 15 -10 0 -28 3 -40 6 -13 4 -23 2 -23 -4z"/>
<path d="M5040 43 c0 -5 -21 -8 -47 -8 -38 0 -48 -4 -51 -17 -3 -16 6 -18 75
-18 58 1 73 3 61 11 -10 5 -18 17 -18 24 0 8 -4 15 -10 15 -5 0 -10 -3 -10 -7z"/>
</g>
</svg>
